<svg xmlns="http://www.w3.org/2000/svg" viewBox="0 0 81.53 110.27"><defs><style>.cls-1{fill:#cac9c9;}.cls-2{fill:#828282;}</style></defs><title>Recurso 9</title><g id="Capa_2" data-name="Capa 2"><g id="Logo"><circle class="cls-1" cx="22.09" cy="21.84" r="2.52"/><circle class="cls-1" cx="78.56" cy="35.15" r="2.97"/><circle class="cls-1" cx="2.97" cy="68.75" r="2.97"/><circle class="cls-2" cx="6.06" cy="99.83" r="2.02"/><circle class="cls-2" cx="40.96" cy="71.35" r="1.46"/><circle class="cls-2" cx="18.89" cy="47.76" r="1.53"/><circle class="cls-2" cx="63.55" cy="49.37" r="1.35"/><circle class="cls-2" cx="46.23" cy="1.91" r="1.91"/><circle class="cls-2" cx="68.53" cy="13.84" r="1.56"/><circle class="cls-1" cx="59.36" cy="99.49" r="1.33"/><path class="cls-1" d="M74.73,19.39a27,27,0,0,1-5.17,13.5,1.37,1.37,0,0,0-.29-.24L50.36,21.36a1.38,1.38,0,0,0-1.88.48A1.37,1.37,0,0,0,49,23.71L67.87,35h0a45.44,45.44,0,0,1-9.84,8.5l-.14-.1L39,32.12a1.37,1.37,0,1,0-1.4,2.35L55.45,45.12a76.05,76.05,0,0,1-14.67,6.55c-2.49.84-2.79,4.74,1.63,3C54.15,50,56.2,48.34,56.2,48.34,77.06,36.49,74.73,19.39,74.73,19.39Z"/><path class="cls-1" d="M39.31,97.61l-22-.51a1.33,1.33,0,0,0-.8.24,28.52,28.52,0,0,1-3.14-13l21.55,1.3a1.37,1.37,0,0,0,.17-2.73l-21.56-1.3a25.82,25.82,0,0,1,4.61-12.25l15.74,1.23a1.37,1.37,0,0,0,.21-2.73l-13.9-1.09a42.31,42.31,0,0,1,10.6-8.13c1.32-.95,1-3.11-1.17-2.34a29.24,29.24,0,0,0-18,17.52c-6.21,19.81,10.06,31.65,10.06,31.65a44,44,0,0,1-3.87-5.6l21.43.49a1.37,1.37,0,1,0,.06-2.73Z"/><path class="cls-2" d="M64.13,21,47.81,11.06c1.47-.62,3-1.22,4.71-1.79a29.78,29.78,0,0,0-4.29.76C9,22.34,33.27,55.81,34.78,57.1l.19.2c3.61,5.36,8.69,11,12.53,18.35l-21.82-.5a1.37,1.37,0,0,0-.07,2.73l23.24.54a45.27,45.27,0,0,1,3.63,12.3l-22-.51a1.37,1.37,0,1,0-.06,2.73l22.41.52a56.3,56.3,0,0,1-1.26,16.81C51.57,110.61,65,88,38,56.8c0,0-6.67-7.8-8.64-17.48l11.14,6.23a1.36,1.36,0,1,0,1.33-2.38L28.93,35.92a20.63,20.63,0,0,1,3.6-13.6l0,0L52.32,34.14a1.37,1.37,0,1,0,1.4-2.35L34.23,20.16a33.91,33.91,0,0,1,10.38-7.62l.17.09L62.73,23.35a1.38,1.38,0,0,0,1.88-.48A1.37,1.37,0,0,0,64.13,21Z"/></g></g></svg>