<svg xmlns="http://www.w3.org/2000/svg" viewBox="0 0 340.24 111.69"><defs><style>.cls-1{fill:#3b61ab;}.cls-2{fill:none;stroke:#3b61ab;stroke-miterlimit:10;}.cls-3{fill:#46af57;}.cls-4,.cls-6{font-size:31.97px;fill:#020202;}.cls-4{font-family:Montserrat-Bold, Montserrat;font-weight:700;}.cls-5{letter-spacing:-0.01em;}.cls-6{font-family:Montserrat-Light, Montserrat;font-weight:300;}</style></defs><title>Recurso 1</title><g id="Capa_2" data-name="Capa 2"><g id="Logo"><circle class="cls-1" cx="27.48" cy="19.6" r="2.55"/><circle class="cls-2" cx="27.48" cy="19.6" r="2.55"/><circle class="cls-1" cx="83.07" cy="38.68" r="3.01"/><circle class="cls-2" cx="83.07" cy="38.68" r="3.01"/><circle class="cls-1" cx="3.51" cy="64.98" r="3.01"/><circle class="cls-2" cx="3.51" cy="64.98" r="3.01"/><circle class="cls-3" cx="3.51" cy="96.6" r="2.05"/><circle class="cls-3" cx="41.54" cy="71.4" r="1.48"/><circle class="cls-3" cx="21.66" cy="45.41" r="1.55"/><circle class="cls-3" cx="66.51" cy="51.51" r="1.37"/><circle class="cls-3" cx="53.81" cy="1.93" r="1.93"/><circle class="cls-3" cx="75.09" cy="16.19" r="1.58"/><circle class="cls-1" cx="57.27" cy="101.61" r="1.35"/><circle class="cls-2" cx="57.27" cy="101.61" r="1.35"/><path class="cls-1" d="M80.78,22.41A27.25,27.25,0,0,1,74.22,35.5a1.38,1.38,0,0,0-.27-.27L56,22a1.38,1.38,0,1,0-1.65,2.22L72.3,37.46h0a46.46,46.46,0,0,1-10.78,7.58l-.12-.12L43.49,31.66a1.38,1.38,0,0,0-1.94.29,1.4,1.4,0,0,0,.29,1.94L58.77,46.41a76.83,76.83,0,0,1-15.44,5.13c-2.59.6-3.28,4.5,1.34,3.17,12.31-3.55,14.53-5,14.53-5C81.42,39.87,80.78,22.41,80.78,22.41Z"/><path class="cls-2" d="M80.78,22.41A27.25,27.25,0,0,1,74.22,35.5a1.38,1.38,0,0,0-.27-.27L56,22a1.38,1.38,0,1,0-1.65,2.22L72.3,37.46h0a46.46,46.46,0,0,1-10.78,7.58l-.12-.12L43.49,31.66a1.38,1.38,0,0,0-1.94.29,1.4,1.4,0,0,0,.29,1.94L58.77,46.41a76.83,76.83,0,0,1-15.44,5.13c-2.59.6-3.28,4.5,1.34,3.17,12.31-3.55,14.53-5,14.53-5C81.42,39.87,80.78,22.41,80.78,22.41Z"/><path class="cls-1" d="M37.25,97.7,15.1,95a1.35,1.35,0,0,0-.82.16,28.76,28.76,0,0,1-1.87-13.43L34,85.18a1.39,1.39,0,0,0,.44-2.74L12.85,79a26.19,26.19,0,0,1,5.87-11.89L34.46,69.9A1.39,1.39,0,0,0,35,67.17l-13.9-2.49c5-4.58,10.41-6.52,11.49-7.14,1.43-.82,1.32-3-.94-2.47A29.64,29.64,0,0,0,11.73,70.93c-8.24,19.34,7,32.9,7,32.9a43.51,43.51,0,0,1-3.33-6l21.54,2.65a1.4,1.4,0,0,0,1.55-1.21A1.38,1.38,0,0,0,37.25,97.7Z"/><path class="cls-2" d="M37.25,97.7,15.1,95a1.35,1.35,0,0,0-.82.16,28.76,28.76,0,0,1-1.87-13.43L34,85.18a1.39,1.39,0,0,0,.44-2.74L12.85,79a26.19,26.19,0,0,1,5.87-11.89L34.46,69.9A1.39,1.39,0,0,0,35,67.17l-13.9-2.49c5-4.58,10.41-6.52,11.49-7.14,1.43-.82,1.32-3-.94-2.47A29.64,29.64,0,0,0,11.73,70.93c-8.24,19.34,7,32.9,7,32.9a43.51,43.51,0,0,1-3.33-6l21.54,2.65a1.4,1.4,0,0,0,1.55-1.21A1.38,1.38,0,0,0,37.25,97.7Z"/><path class="cls-3" d="M69.94,23,54.48,11.31q2.31-.72,4.93-1.33a30,30,0,0,0-4.4.34C14.27,18.81,35.35,55,36.74,56.42l.17.21c3.1,5.77,7.65,12,10.79,19.76L25.76,73.7a1.38,1.38,0,0,0-1.55,1.2,1.4,1.4,0,0,0,1.21,1.55l23.37,2.87a45.84,45.84,0,0,1,2.42,12.75L29.06,89.35a1.4,1.4,0,0,0-1.55,1.21,1.38,1.38,0,0,0,1.21,1.54l22.54,2.77a57,57,0,0,1-2.95,16.82c0,.34,15.81-21.06-8.25-55.25,0,0-6-8.53-7-18.49L43.7,45.36a1.39,1.39,0,0,0,1.58-2.28L33,34.48a20.85,20.85,0,0,1,5-13.34l0,0L56.72,35a1.39,1.39,0,1,0,1.65-2.23L39.89,19.12a34.41,34.41,0,0,1,11.22-6.64,1.67,1.67,0,0,1,.16.12l17,12.59A1.38,1.38,0,1,0,69.94,23Z"/><text class="cls-4" transform="translate(76.66 88.62) scale(1.17 1.15)"><tspan class="cls-5">P</tspan><tspan x="23.08" y="0">RO</tspan></text><text class="cls-6" transform="translate(163.53 88.62) scale(1.17 1.15)">GENOME</text></g></g></svg>