<?xml version="1.0" standalone="no"?>
<!DOCTYPE svg PUBLIC "-//W3C//DTD SVG 20010904//EN"
 "http://www.w3.org/TR/2001/REC-SVG-20010904/DTD/svg10.dtd">
<svg version="1.0" xmlns="http://www.w3.org/2000/svg"
 width="500.000000pt" height="500.000000pt" viewBox="0 0 500.000000 500.000000"
 preserveAspectRatio="xMidYMid meet">

<g transform="translate(0.000000,500.000000) scale(0.100000,-0.100000)"
fill="#000000" stroke="none">
<path d="M870 2944 c-11 -12 -10 -18 3 -32 16 -15 18 -15 34 0 13 14 14 20 3
32 -7 9 -16 16 -20 16 -4 0 -13 -7 -20 -16z"/>
<path d="M1063 2553 c-22 -8 -14 -23 13 -23 15 0 24 5 22 12 -5 14 -18 18 -35
11z"/>
<path d="M1190 2390 l0 -140 35 0 c34 0 35 1 35 39 l0 39 55 4 c64 5 92 26
101 74 16 87 -29 124 -148 124 l-78 0 0 -140z m158 42 c3 -27 -1 -34 -23 -42
-54 -20 -65 -14 -65 36 l0 45 43 -3 c39 -3 42 -5 45 -36z"/>
<path d="M1530 2390 l0 -140 35 0 c34 0 35 1 35 40 0 37 2 40 28 40 24 0 32
-7 47 -40 17 -37 21 -40 57 -40 21 0 38 3 38 8 0 4 -12 24 -26 45 l-25 38 21
17 c25 21 35 77 21 115 -15 39 -65 57 -156 57 l-75 0 0 -140z m168 42 c3 -27
-1 -34 -23 -42 -14 -6 -37 -10 -51 -10 -22 0 -24 4 -24 46 l0 45 48 -3 c45 -3
47 -4 50 -36z"/>
<path d="M1943 2514 c-97 -48 -97 -201 0 -247 136 -65 281 69 207 191 -41 67
-134 92 -207 56z m116 -54 c10 -5 24 -23 31 -40 34 -82 -75 -153 -129 -84 -56
71 20 166 98 124z"/>
<path d="M2341 2512 c-99 -50 -105 -177 -12 -239 40 -27 94 -30 151 -7 40 16
40 16 40 70 0 47 -3 54 -19 54 -16 0 -20 -8 -23 -42 -3 -40 -5 -44 -40 -52
-47 -12 -94 7 -113 45 -49 93 45 183 139 134 30 -16 46 -12 46 11 0 19 -59 44
-102 44 -18 0 -48 -8 -67 -18z"/>
<path d="M2650 2390 l0 -140 105 0 c98 0 105 1 105 20 0 18 -7 20 -80 20 l-80
0 0 40 0 40 70 0 c63 0 70 2 70 20 0 18 -7 20 -70 20 l-70 0 0 40 0 40 75 0
c68 0 75 2 75 20 0 19 -7 20 -100 20 l-100 0 0 -140z"/>
<path d="M2990 2390 c0 -133 1 -140 20 -140 19 0 20 7 20 95 0 52 3 95 8 95 4
0 38 -43 75 -95 54 -75 74 -95 93 -95 l24 0 0 140 0 140 -25 0 c-24 0 -24 -1
-27 -96 l-3 -95 -70 95 c-52 71 -76 95 -92 96 -23 0 -23 -1 -23 -140z"/>
<path d="M3425 2511 c-57 -35 -70 -58 -70 -122 0 -54 3 -61 37 -95 29 -30 45
-38 85 -41 97 -10 163 46 163 137 0 26 -8 58 -19 76 -36 60 -136 83 -196 45z
m144 -56 c39 -39 36 -98 -8 -137 -29 -26 -39 -30 -75 -25 -70 10 -109 85 -76
147 28 53 113 61 159 15z"/>
<path d="M3760 2390 l0 -140 25 0 c25 0 25 0 26 103 l1 102 40 -87 c30 -64 46
-88 60 -88 13 0 30 24 61 88 l42 87 3 -102 c2 -95 4 -103 22 -103 19 0 20 7
20 140 l0 140 -28 0 c-25 0 -32 -9 -73 -92 l-46 -93 -47 93 c-43 85 -48 92
-76 92 l-30 0 0 -140z"/>
<path d="M4200 2390 l0 -140 105 0 c98 0 105 1 105 20 0 18 -7 20 -80 20 l-80
0 0 40 0 40 70 0 c63 0 70 2 70 20 0 18 -7 20 -70 20 l-70 0 0 40 0 40 75 0
c68 0 75 2 75 20 0 19 -7 20 -100 20 l-100 0 0 -140z"/>
<path d="M865 2491 c-117 -55 -184 -164 -172 -282 7 -59 51 -174 64 -166 5 3
58 -4 118 -14 125 -21 135 -22 135 -11 0 4 -51 16 -112 26 -166 26 -156 21
-173 79 -8 28 -15 61 -15 74 0 29 9 29 159 3 103 -17 133 -19 120 -6 -2 3 -66
15 -142 27 -109 18 -137 26 -136 38 1 22 20 70 43 107 l18 31 102 -18 c55 -9
103 -15 105 -13 10 9 -12 16 -94 29 -48 8 -90 16 -92 19 -7 7 80 55 131 72 25
9 43 20 40 25 -9 15 -36 10 -99 -20z"/>
<path d="M594 2426 c-10 -26 4 -48 28 -44 17 2 23 10 23 28 0 18 -6 26 -23 28
-13 2 -25 -3 -28 -12z"/>
<path d="M1220 1990 c0 -5 5 -10 10 -10 6 0 10 5 10 10 0 6 -4 10 -10 10 -5 0
-10 -4 -10 -10z"/>
</g>
</svg>
