<svg xmlns="http://www.w3.org/2000/svg" viewBox="0 0 69.38 100.2"><defs><style>.cls-1{fill:#3b61ab;}.cls-2{fill:none;stroke:#3b61ab;stroke-miterlimit:10;}.cls-3{fill:#46af57;}</style></defs><title>Recurso 7</title><g id="Capa_2" data-name="Capa 2"><g id="Logo"><circle class="cls-1" cx="56.93" cy="76.1" r="2.33"/><circle class="cls-2" cx="56.93" cy="76.1" r="2.33"/><circle class="cls-1" cx="3.25" cy="73.84" r="2.75"/><circle class="cls-2" cx="3.25" cy="73.84" r="2.75"/><circle class="cls-1" cx="66.13" cy="30.1" r="2.75"/><circle class="cls-2" cx="66.13" cy="30.1" r="2.75"/><circle class="cls-3" cx="57.91" cy="2.39" r="1.87"/><circle class="cls-3" cx="31.14" cy="34.36" r="1.35"/><circle class="cls-3" cx="55.32" cy="51.97" r="1.42"/><circle class="cls-3" cx="14.42" cy="58.29" r="1.25"/><circle class="cls-3" cx="38.45" cy="98.43" r="1.77"/><circle class="cls-3" cx="16.09" cy="91.47" r="1.44"/><circle class="cls-1" cx="9.49" cy="11.98" r="1.23"/><circle class="cls-2" cx="9.49" cy="11.98" r="1.23"/><path class="cls-1" d="M9.49,87.51a25,25,0,0,1,2.34-13.19,1,1,0,0,0,.31.17l19.16,7a1.27,1.27,0,1,0,.87-2.38L13,72.11h0a42.1,42.1,0,0,1,7.47-9.45l.14.07,19.17,7a1.27,1.27,0,0,0,.86-2.38L22.53,60.74a70.9,70.9,0,0,1,12.2-8.51c2.11-1.19,1.71-4.79-2-2.42C22.87,56.11,21.29,58,21.29,58,4.38,72.36,9.49,87.51,9.49,87.51Z"/><path class="cls-1" d="M28.06,10.2,48.17,6.83a1.29,1.29,0,0,0,.68-.36A26.3,26.3,0,0,1,54,17.75L34.15,20.33a1.27,1.27,0,1,0,.33,2.51l19.83-2.57a23.91,23.91,0,0,1-2.06,12L37.73,33.84a1.26,1.26,0,0,0-1.12,1.4A1.28,1.28,0,0,0,38,36.36l12.83-1.44a39.11,39.11,0,0,1-8.22,9.25c-1,1.09-.36,3,1.47,1.92A27.07,27.07,0,0,0,57.38,27C59.57,7.93,42.72,0,42.72,0a41,41,0,0,1,4.49,4.42L27.64,7.7a1.27,1.27,0,1,0,.42,2.5Z"/><path class="cls-3" d="M18.84,84.2l16.58,6.19c-1.23.82-2.54,1.64-4,2.44a27.61,27.61,0,0,0,3.77-1.43c33.49-18,5.62-44.24,4-45.15L39,46.1c-4.22-4.25-9.83-8.54-14.59-14.51l19.93-3.34a1.27,1.27,0,1,0-.42-2.5L22.72,29.31a42.06,42.06,0,0,1-5.44-10.55l20.13-3.38A1.26,1.26,0,0,0,37,12.89L16.51,16.32A52.19,52.19,0,0,1,14.73.82C14.64.51,6.35,23.38,36.32,47.09c0,0,7.44,5.93,10.91,14.39L36,57.75a1.26,1.26,0,1,0-.8,2.4l13,4.34a19.1,19.1,0,0,1-.9,13,.05.05,0,0,1,0,0l-20-7.27a1.27,1.27,0,0,0-.87,2.38l19.76,7.18a31.75,31.75,0,0,1-8.11,8.74l-.17-.06L19.71,81.81a1.27,1.27,0,0,0-.87,2.39Z"/></g></g></svg>