<?xml version="1.0" standalone="no"?>
<!DOCTYPE svg PUBLIC "-//W3C//DTD SVG 20010904//EN"
 "http://www.w3.org/TR/2001/REC-SVG-20010904/DTD/svg10.dtd">
<svg version="1.0" xmlns="http://www.w3.org/2000/svg"
 width="500.000000pt" height="500.000000pt" viewBox="0 0 500.000000 500.000000"
 preserveAspectRatio="xMidYMid meet">

<g transform="translate(0.000000,500.000000) scale(0.100000,-0.100000)"
fill="#000000" stroke="none">
<path d="M2010 3787 c-26 -7 -62 -23 -83 -36 -48 -29 -159 -151 -155 -170 6
-29 24 -19 63 36 36 51 112 119 122 109 2 -2 -3 -47 -12 -100 -17 -110 -19
-136 -6 -136 5 0 16 51 25 113 10 61 19 119 22 128 6 21 68 39 138 39 47 0 56
-3 56 -17 0 -10 -9 -87 -22 -170 -19 -133 -20 -178 -4 -162 2 2 14 73 27 156
12 84 26 158 30 165 10 15 88 -20 136 -60 l31 -27 -25 -158 c-23 -144 -24
-182 -7 -164 3 3 16 70 28 149 17 111 25 142 37 140 30 -5 -117 122 -169 146
-66 30 -165 38 -232 19z"/>
<path d="M1690 3470 c-13 -24 -6 -55 10 -45 22 13 30 43 15 55 -11 9 -16 7
-25 -10z"/>
<path d="M1220 2800 l0 -140 35 0 c34 0 35 1 35 39 l0 39 55 4 c64 5 92 26
101 74 16 87 -29 124 -148 124 l-78 0 0 -140z m158 42 c3 -27 -1 -34 -23 -42
-54 -20 -65 -14 -65 36 l0 45 43 -3 c39 -3 42 -5 45 -36z"/>
<path d="M1560 2800 l0 -140 35 0 c34 0 35 1 35 40 0 37 2 40 28 40 24 0 32
-7 47 -40 17 -37 21 -40 57 -40 21 0 38 3 38 8 0 4 -12 24 -26 45 l-25 38 21
17 c25 21 35 77 21 115 -15 39 -65 57 -156 57 l-75 0 0 -140z m168 42 c3 -27
-1 -34 -23 -42 -14 -6 -37 -10 -51 -10 -22 0 -24 4 -24 46 l0 45 48 -3 c45 -3
47 -4 50 -36z"/>
<path d="M1973 2924 c-97 -48 -97 -201 0 -247 136 -65 281 69 207 191 -41 67
-134 92 -207 56z m116 -54 c10 -5 24 -23 31 -40 34 -82 -75 -153 -129 -84 -56
71 20 166 98 124z"/>
<path d="M831 2592 c-20 -15 -21 -20 -9 -30 12 -10 19 -8 33 8 26 29 6 47 -24
22z"/>
<path d="M654 2448 c-108 -102 -149 -247 -106 -371 24 -67 77 -143 126 -181
l34 -26 156 37 c108 26 156 41 156 51 0 8 -7 11 -17 8 -10 -3 -83 -21 -163
-41 l-145 -36 -37 43 c-48 55 -75 105 -63 116 6 5 81 26 168 46 98 24 155 42
150 47 -6 6 -72 -5 -172 -29 l-163 -39 -10 26 c-12 32 -5 161 10 170 6 4 63
19 127 35 63 15 115 32 115 37 0 13 -11 12 -122 -16 -55 -14 -103 -24 -105
-21 -10 10 39 76 97 129 44 41 55 57 44 61 -23 9 -21 10 -80 -46z"/>
<path d="M1281 2452 c-99 -50 -105 -177 -12 -239 40 -27 94 -30 151 -7 40 16
40 16 40 70 0 47 -3 54 -19 54 -16 0 -20 -8 -23 -42 -3 -40 -5 -44 -40 -52
-47 -12 -94 7 -113 45 -49 93 45 183 139 134 30 -16 46 -12 46 11 0 19 -59 44
-102 44 -18 0 -48 -8 -67 -18z"/>
<path d="M1590 2330 l0 -140 105 0 c98 0 105 1 105 20 0 18 -7 20 -80 20 l-80
0 0 40 0 40 70 0 c63 0 70 2 70 20 0 18 -7 20 -70 20 l-70 0 0 40 0 40 75 0
c68 0 75 2 75 20 0 19 -7 20 -100 20 l-100 0 0 -140z"/>
<path d="M1930 2330 c0 -133 1 -140 20 -140 19 0 20 7 20 95 0 52 3 95 8 95 4
0 38 -43 75 -95 54 -75 74 -95 93 -95 l24 0 0 140 0 140 -25 0 c-24 0 -24 -1
-27 -96 l-3 -95 -70 95 c-52 71 -76 95 -92 96 -23 0 -23 -1 -23 -140z"/>
<path d="M2365 2451 c-57 -35 -70 -58 -70 -122 0 -54 3 -61 37 -95 29 -30 45
-38 85 -41 97 -10 163 46 163 137 0 26 -8 58 -19 76 -36 60 -136 83 -196 45z
m144 -56 c39 -39 36 -98 -8 -137 -29 -26 -39 -30 -75 -25 -70 10 -109 85 -76
147 28 53 113 61 159 15z"/>
<path d="M2700 2330 l0 -140 25 0 c25 0 25 0 26 103 l1 102 40 -87 c30 -64 46
-88 60 -88 13 0 30 24 61 88 l42 87 3 -102 c2 -95 4 -103 22 -103 19 0 20 7
20 140 l0 140 -28 0 c-25 0 -32 -9 -73 -92 l-46 -93 -47 93 c-43 85 -48 92
-76 92 l-30 0 0 -140z"/>
<path d="M3140 2330 l0 -140 105 0 c98 0 105 1 105 20 0 18 -7 20 -80 20 l-80
0 0 40 0 40 70 0 c63 0 70 2 70 20 0 18 -7 20 -70 20 l-70 0 0 40 0 40 75 0
c68 0 75 2 75 20 0 19 -7 20 -100 20 l-100 0 0 -140z"/>
<path d="M2353 1649 c3 -13 15 -88 27 -167 l22 -143 -24 -19 c-27 -22 -138
-84 -143 -78 -1 1 -14 76 -28 166 -14 90 -28 166 -31 169 -17 17 -15 -20 8
-170 14 -91 26 -168 26 -171 0 -10 -123 -7 -162 5 -21 5 -38 13 -38 16 0 10
-30 207 -36 232 -3 15 -9 20 -14 15 -6 -6 -4 -44 5 -99 17 -103 18 -135 7
-135 -13 0 -102 91 -130 133 -19 29 -28 35 -38 26 -18 -15 -7 -33 62 -108 34
-37 77 -71 112 -88 50 -24 69 -28 147 -28 79 0 97 4 147 28 65 32 175 127 159
136 -6 4 -21 72 -33 151 -16 98 -27 145 -37 148 -10 3 -12 -2 -8 -19z"/>
<path d="M1711 1566 c-10 -11 -9 -19 1 -35 7 -12 16 -21 21 -21 16 0 18 30 4
50 -12 17 -16 18 -26 6z"/>
</g>
</svg>
